<svg xmlns="http://www.w3.org/2000/svg" viewBox="0 0 256 256" width="24" height="24">
  <g transform="translate(1.41 1.41) scale(2.81 2.81)" fill="#fff">
    <path d="M71.343 62.159c-4.758 0-8.628-3.87-8.628-8.627 0-4.758 3.87-8.628 8.628-8.628s8.628 3.87 8.628 8.628c0 4.758-3.87 8.628-8.628 8.627zm0-14.255c-3.104 0-5.628 2.524-5.628 5.628 0 3.103 2.524 5.627 5.628 5.627s5.628-2.524 5.628-5.627c0-3.104-2.525-5.628-5.628-5.628z"/>
    <path d="M17.62 62.159c-4.757 0-8.628-3.87-8.628-8.627 0-4.758 3.871-8.628 8.628-8.628s8.627 3.87 8.627 8.628c0 4.758-3.87 8.628-8.627 8.627zm0-14.255c-3.103 0-5.628 2.524-5.628 5.628 0 3.103 2.525 5.627 5.628 5.627s5.627-2.524 5.627-5.627c0-3.104-2.524-5.628-5.627-5.628z"/>
    <path d="M84.18 42.13l-22.961-5.208-12.063-7c-2.348-1.362-5.022-2.082-7.734-2.082h-23.53c-4.746 0-9.154 2.136-12.095 5.861l-3.368 4.266c-1.042 1.321-1.659 2.905-1.783 4.582l-.631 8.508c-.181 2.445 1.417 4.643 3.8 5.224l3.851.938c-.428-1.151-.673-2.389-.673-3.687 0-5.86 4.768-10.628 10.628-10.628 5.86 0 10.627 4.768 10.627 10.628 0 1.607-.369 3.125-1.01 4.492h34.488c-.641-1.367-1.01-2.885-1.01-4.492 0-5.86 4.768-10.628 10.628-10.628s10.628 4.768 10.628 10.628c0 1.468-.3 2.868-.841 4.141l4.646-.504C88.185 56.907 90 54.883 90 52.462v-3.043C90 45.905 87.606 42.908 84.18 42.13zM20.415 39.055c-1.031 0-1.96-.485-2.551-1.33-.59-.845-.725-1.885-.37-2.853l1.48-4.031h14.751l.832 8.214H20.415zM51.181 39.055H37.572L36.74 30.84h4.68c2.185 0 4.338.58 6.229 1.676l9.593 5.566c-1.954.643-3.985.973-6.061.973z"/>
  </g>
</svg>