<svg id="visual" viewBox="0 0 600 900" width="600" height="900" xmlns="http://www.w3.org/2000/svg" xmlns:xlink="http://www.w3.org/1999/xlink" version="1.1"><rect x="0" y="0" width="600" height="900" fill="#1a4a8a"></rect><defs><linearGradient id="grad1_0" x1="0%" y1="0%" x2="100%" y2="100%"><stop offset="30%" stop-color="#133a6e" stop-opacity="1"></stop><stop offset="70%" stop-color="#133a6e" stop-opacity="1"></stop></linearGradient></defs><defs><linearGradient id="grad1_1" x1="0%" y1="0%" x2="100%" y2="100%"><stop offset="30%" stop-color="#133a6e" stop-opacity="1"></stop><stop offset="70%" stop-color="#16427c" stop-opacity="1"></stop></linearGradient></defs><defs><linearGradient id="grad1_2" x1="0%" y1="0%" x2="100%" y2="100%"><stop offset="30%" stop-color="#1a4a8a" stop-opacity="1"></stop><stop offset="70%" stop-color="#16427c" stop-opacity="1"></stop></linearGradient></defs><defs><linearGradient id="grad2_0" x1="0%" y1="0%" x2="100%" y2="100%"><stop offset="30%" stop-color="#133a6e" stop-opacity="1"></stop><stop offset="70%" stop-color="#133a6e" stop-opacity="1"></stop></linearGradient></defs><defs><linearGradient id="grad2_1" x1="0%" y1="0%" x2="100%" y2="100%"><stop offset="30%" stop-color="#16427c" stop-opacity="1"></stop><stop offset="70%" stop-color="#133a6e" stop-opacity="1"></stop></linearGradient></defs><defs><linearGradient id="grad2_2" x1="0%" y1="0%" x2="100%" y2="100%"><stop offset="30%" stop-color="#16427c" stop-opacity="1"></stop><stop offset="70%" stop-color="#1a4a8a" stop-opacity="1"></stop></linearGradient></defs><g transform="translate(600, 0)"><path d="M0 459.7C-48.5 408.1 -97 356.5 -132.4 319.7C-167.8 282.8 -190 260.7 -244 244C-297.9 227.2 -383.5 215.7 -424.7 175.9C-466 136.1 -462.8 68.1 -459.7 0L0 0Z" fill="#184683"></path><path d="M0 306.5C-32.3 272.1 -64.7 237.7 -88.3 213.1C-111.9 188.5 -126.7 173.8 -162.6 162.6C-198.6 151.4 -255.7 143.8 -283.1 117.3C-310.6 90.8 -308.6 45.4 -306.5 0L0 0Z" fill="#153e75"></path><path d="M0 153.2C-16.2 136 -32.3 118.8 -44.1 106.6C-55.9 94.3 -63.3 86.9 -81.3 81.3C-99.3 75.7 -127.8 71.9 -141.6 58.6C-155.3 45.4 -154.3 22.7 -153.2 0L0 0Z" fill="#133a6e"></path></g><g transform="translate(0, 900)"><path d="M0 -459.7C69.8 -462.5 139.6 -465.4 175.9 -424.7C212.3 -384.1 215.2 -299.9 256 -256C296.8 -212 375.5 -208.2 415.7 -172.2C456 -136.2 457.9 -68.1 459.7 0L0 0Z" fill="#184683"></path><path d="M0 -306.5C46.5 -308.4 93.1 -310.2 117.3 -283.1C141.5 -256 143.4 -200 170.6 -170.6C197.8 -141.3 250.3 -138.8 277.2 -114.8C304 -90.8 305.2 -45.4 306.5 0L0 0Z" fill="#153e75"></path><path d="M0 -153.2C23.3 -154.2 46.5 -155.1 58.6 -141.6C70.8 -128 71.7 -100 85.3 -85.3C98.9 -70.7 125.2 -69.4 138.6 -57.4C152 -45.4 152.6 -22.7 153.2 0L0 0Z" fill="#133a6e"></path></g></svg>