<?xml version="1.0" standalone="no"?>
<!DOCTYPE svg PUBLIC "-//W3C//DTD SVG 20010904//EN"
 "http://www.w3.org/TR/2001/REC-SVG-20010904/DTD/svg10.dtd">
<svg version="1.0" xmlns="http://www.w3.org/2000/svg"
 width="515.000000pt" height="515.000000pt" viewBox="0 0 515.000000 515.000000"
 preserveAspectRatio="xMidYMid meet">

<g transform="translate(0.000000,515.000000) scale(0.100000,-0.100000)"
fill="#1A4A8A" stroke="none">
<path d="M900 5060 c-277 -27 -543 -191 -707 -437 -59 -90 -128 -245 -119
-270 3 -8 -2 -31 -11 -51 -17 -35 -18 -136 -18 -1717 0 -924 4 -1711 8 -1749
6 -47 12 -65 18 -55 6 10 9 3 9 -22 0 -38 25 -110 42 -120 5 -3 9 -10 9 -15
-1 -5 25 -49 58 -99 113 -172 298 -318 486 -382 161 -55 138 -54 1945 -51
l1665 3 85 23 c321 88 596 339 690 632 42 129 42 145 38 1865 -4 1645 -4 1650
-25 1728 -57 209 -195 408 -368 532 -108 76 -278 158 -332 159 -18 0 -30 2
-27 5 3 3 -23 11 -58 18 -48 9 -458 12 -1688 11 -894 0 -1659 -4 -1700 -8z
m2090 -1046 c230 -50 449 -154 621 -294 154 -127 307 -317 394 -491 148 -294
183 -697 89 -1029 -32 -112 -100 -282 -116 -288 -4 -2 -8 -8 -8 -14 0 -35
-157 -254 -250 -349 -232 -236 -519 -378 -850 -421 -163 -21 -1332 -18 -1415
3 -154 41 -275 138 -343 278 -37 75 -37 77 -37 201 l0 125 39 75 c68 132 176
218 326 259 72 20 98 21 697 21 l622 0 65 24 c87 31 155 77 216 143 59 65 86
113 111 203 42 145 6 300 -97 427 -31 38 -160 133 -180 133 -5 0 -22 7 -39 16
-53 27 -256 35 -767 29 -563 -7 -623 -2 -736 53 -137 66 -235 204 -266 374
-31 165 -22 450 15 521 9 16 63 17 922 17 803 0 921 -2 987 -16z"/>
</g>
</svg>
